<?xml version="1.0" encoding="UTF-8"?><svg id="a" xmlns="http://www.w3.org/2000/svg" viewBox="0 0 1024 1024"><defs><style>.b{fill:#ebc108;}.c{fill:#d9180e;}.d{fill:#fbfafa;}.e{fill:#0e0c0c;}.f{fill:#e21c11;}</style></defs><path class="d" d="M279.32,449.7c6.43-134.23,42.15-258.25,127.32-364.98,16.6-20.81,34.86-40.07,57.98-53.76,19.27-11.41,39.84-22.23,62.05-9.31,22.21,12.92,22.91,36.37,22.93,58.64,.03,32.81-1.54,65.61-1.55,98.42,0,16.36,2.25,32.72,2.94,49.1,.33,7.94,3.13,11.82,11.45,10.3,1.23-.22,2.56-.35,3.77-.14,22.23,3.86,32.21-5.18,38.64-27.51,14.14-49.14,40.01-92.39,77.88-127.59,18.26-16.97,38.95-30,63.61-35.66,32.74-7.53,50.01,4.49,52.75,37.94,2.59,31.65-5.06,62.8-6.26,94.31-.65,17.02-1.55,34.07-3.37,50.99-3.74,34.83,1.17,63.23,29.65,90.77,41.84,40.44,49.32,97.59,53.56,153.67-40.03,33.11-45.45,77.51-40.85,125.19,.19,8.5-.67,17.17,4.16,29.38,8.83-25.9,14.88-49.11,37.65-65.14,.67,11.91,1.81,22.15,1.71,32.37-.4,44.22,17.48,85.14,22.82,128.32,3.76,30.43,4.01,60.6-6.68,89.75-5.53,15.07-17.28,23.51-33.63,22.61-14.2-.78-25.64-6.95-29.41-22.13-2.47-9.93-.67-18.58,8.4-24.98,9.85-6.94,18.86-15.01,25.09-25.44,7.51-12.57,4.67-22.2-10.21-25.61-26.53-6.08-52.88-3.31-78.06,6.01-13.63,5.04-14.54,16.26-3.82,26.93,8.15,8.12,18.51,13.08,28.7,18.04,14.71,7.16,16.13,18.07,9.28,31.32-7.69,14.87-20.84,23.3-35.92,29.12-42.64,16.46-85.22,14.11-127.73-.61-39.37-19.54-70.97-47.38-93.01-85.83-3.34-5.82-8.58-10.98-13.96-15.11-9.2-7.04-19.73-8.18-30.19-2.54-10.09,5.44-13.17,14.77-12.62,25.58,1,19.68,11.75,34.46,25.48,46.97,24.25,22.09,52.92,35.84,85.17,42.01,45.57,14.08,91.54,24.2,139.72,15.89,26.08-4.5,49.65-13.83,69.02-32.5,3.04-2.93,5.5-10.13,11.77-3.8,10.91,11.01,25.36,12.35,43.14,13.86-24.93,29.63-53.96,47.02-88.04,55.95-76.2,19.96-150.74,7.96-223.53-15.89-101.03-33.09-177.22-96.98-226.77-191.7-1.72-3.29-3.99-6.29-6-9.42-1.01-77.22-.85-154.49-7.46-231.53,12.27-6.56,16.33-16.39,11.21-29.42-3.73-9.46-11.44-13.42-20.93-10.93-12.93,3.39-16.92,13.21-15.38,25.8-4.15,.76-8.3,1.53-12.45,2.29Zm390.26,176.9c5.06-82.25-44.25-141.32-125.79-149.16-36.27-3.49-72.7-5.14-108.08-14.84-2.5-1.79-5.72-5.59-7.35-5-4.28,1.56-2.96,6.23-2.2,9.71,6.24,28.4,22.56,50.06,45.86,66.63,21.22,15.09,45.6,23.35,69.97,31.78,43.77,15.15,89.5,27.06,119.68,66.77,1.57,2.07,4.11,6.22,7.17,3.13,1.62-1.64,.58-5.93,.74-9.02ZM398.9,279.19c37.24-22.34,74.73-34.11,114.63-37.81,8.35-.77,8.05-5.58,7.88-11.69-1.28-45.98-3.76-91.96-1.08-137.98,.47-8.15,.24-17.61-8.28-21.65-8.79-4.17-15.94,2.59-21.55,8.14-55.08,54.56-81.58,122.16-91.59,200.99Zm361.12-2.77c-.08-53.88,5.06-104.66,8.51-155.54,.49-7.25,2.5-16.55-4.74-20.97-8.72-5.32-15.4,2.63-21.43,7.63-40.99,34.04-62.45,79.59-76.05,129.82-2.33,8.61,.64,11.12,8.62,11.82,29.16,2.58,56.59,11.13,85.08,27.24Zm-.57,258.76c6.04-43.69,6.64-86.61-2.13-129.49-4.71-23-11.92-45.19-25.5-64.51-15.7-22.34-35.43-39.78-64.38-41.35-24.63-1.33-34.77,15.16-23.13,36.77,9.09,16.9,23.15,29.81,36.71,42.91,40.02,38.65,63.5,85.47,70.94,140.52,.69,5.14-1.38,11.79,7.5,15.13Zm-277.48,80.13c1.89,0,3.83,.25,5.68-.04,10.57-1.69,27.04,4.23,29.66-7.83,1.77-8.16-16.17-7.69-24.73-12.28-1.66-.89-3.48-1.49-5.24-2.17-39.17-15.08-73.62-36.14-94.37-74.55-3.68-6.81-4.24-18.07-15.14-16.33-10.31,1.65-14.32,11.13-17.12,20.61-7.78,26.37,6.2,54.9,35.78,72.13,26.42,15.39,55.46,20,85.48,20.47Zm233.32-85.4c6.37-37.9-15.91-82.01-46.21-99.43-18.63-10.71-36.93-10.8-42.49,1.15-9.25,19.88,7.93,27.45,20.04,34.62,26.22,15.52,52.03,30.91,68.66,63.66Zm-233.82,107.9c-38.29,6.95-73.1,1.81-103.59-23.61-9.33-7.78-15.19-.96-17.01,8.66-1.97,10.37,.46,19.8,7.64,28.1,25.41,29.35,92.47,22.19,112.96-13.14Zm305.62-117.39c7.28-27.58,29.45-45.31,42.16-68.7,5.36-9.86,9.69-23.13-3-30.04-12.47-6.79-21.72,3.39-27.35,13.35-14.98,26.49-16.71,55.35-11.81,85.4Z"/><path class="c" d="M279.32,449.7c4.15-.76,8.3-1.53,12.45-2.29,6.38,8.29,14.79,13.07,25.11,14.55,6.61,77.04,6.45,154.3,7.46,231.53-.5,11.97-.92,23.94-1.55,35.9-.36,6.78,.67,14.6-10.28,13.97-10.79-.62-7.11-8.75-7.12-14.09-.12-61.21,.1-122.42,.21-183.63,.04-22.08,0-44.16,0-67.64-7.53,2.24-6.91,8.02-9.16,11.67-2.23-.02-4.46-.05-6.69-.07,4.54-8.78,12.13-17.33,2.17-27.27-1.83-2.22-1.9-.18-2.34,.96l.24-.34c-1.86,0-4.07-.67-5.51,.1-30.14,16.21-59.97,33.15-77.27,64.42-5.86,10.6-17.22,13.6-23.32,9.68-8.53-5.49,1.28-14.1,4.81-20.63,6.42-11.88,19.47-18.02,26.94-29.33-20.57,7.19-38.83,17.62-51.85,35.23-4.38,5.92-8.5,12.87-3.34,20.89,4.41,6.84,11.2,7.24,18.29,7.41,12.43,.3,23.34-4.56,34.29-9.54,28.08-12.78,45.04-37.7,65.01-59.35,4.14,2.29,5.91,8.14,11.78,7.83,.47,5.14-1.46,10.83,3.38,14.98-9.2,50.84-16.56,101.89-18.87,153.58-.28,6.24,2.46,14.93-9.62,13.68-10.06-1.05-9.96-7.44-9.42-14.86,3.43-47.19,9.64-93.95,20.76-140,1.02-4.21,1.86-8.46,.27-14.33-8.12,9.57-15.93,19.43-24.42,28.66-23.06,25.07-47.95,46.69-85.21,45.75-17.62-.44-32.71-4.63-39.98-22.43-7.41-18.14-.46-33.49,11.79-46.53,19.57-20.83,45.58-31.07,71.61-40.69,22.46-8.3,45.75-13.85,69.39-17.8Z"/><path class="c" d="M267.44,969.29c.7-14.44,3.55-34.87,10.02-54.73,1.73-5.33,2.3-12.92,10.34-9.19,7.36,3.42,18.87-6.97,22.83,8.87,5.8,23.18,10.89,46.29,13.5,70.1,1.59,14.53-3.89,19.85-17.61,22.29-30.19,5.36-39.75-1.63-39.07-37.33Z"/><path class="f" d="M605.03,861.1c-32.25-6.17-60.92-19.92-85.17-42.01-13.73-12.51-24.48-27.29-25.48-46.97-.55-10.81,2.53-20.14,12.62-25.58,10.46-5.65,21-4.51,30.19,2.54,5.39,4.12,10.63,9.29,13.96,15.11,22.03,38.45,53.63,66.29,93.01,85.83-39.67-7.74-70.22-29.53-94.43-61.18-4.98-6.5-10.14-12.89-15.61-18.98-5.76-6.42-12.82-11.87-21.26-5.46-7.8,5.93-6.1,14.46-2.71,22.46,5.31,12.52,14.58,21.94,24.25,31.11,20.48,19.43,46.3,30.04,70.62,43.14Z"/><path class="b" d="M316.96,837.63c-11.33,2.62-18.59-1.12-25.43-5.76-9.74-6.62-19.72-15.86-17.54-27.22,2.07-10.77,16.09-9.81,25.61-11.77,17.53-3.62,35.11-2.79,52.74,.32,9.22,1.62,11.59,6.19,9.06,14.52-3.27,10.76-10.15,18.68-19.22,25.02-5.38,3.76-10.85,3.84-15.78,.03-4.59-3.55-11.76-6.32-6.75-14.82,2.61-4.43,1.57-8.5-3.83-10.61-4.64-1.81-9.04-.99-12.26,2.36-4.09,4.26-1.18,7.25,2.24,10.93,4.16,4.47,6.87,10.28,11.15,17Z"/><path class="b" d="M286.07,758.57c-4.98-2.12-7.95,2.59-12.02,3.53-4.09,.94-8.74,4.11-12.09-.58-2.77-3.89-2.26-8.62,1.14-12.13,3.46-3.56,5.91-6.87,1.19-10.94-3.84-3.31-8.38-2.88-12.33-.55-5.2,3.07-3.68,6.37-.42,10.68,3.02,3.99,3.85,10.27,.41,14.01-4.11,4.48-9.32,.12-13.71-1.63-3.44-1.38-6.77-3.43-9.59-5.84-7.81-6.64-16.71-15.1-13.97-25.03,2.58-9.35,15.13-6.45,23.35-7.7,15.09-2.29,30.2,.12,44.86,3.88,18.51,4.75,19.67,8.88,8.24,23.73-2.11,2.74-6.65,4.09-5.39,8.9l.33-.33Z"/><path class="b" d="M300.02,725.72c-28.18-13.5-55.77-14.85-83.91-6.16-2.47-21.52,14.58-39.28,38.24-40.53,27.36-1.45,46.41,17.07,45.68,46.69Z"/><path class="b" d="M285.75,758.91c6.42,2.07,10.34-3.43,15.44-5.25,26.28-9.36,51.37,3.89,60.56,34.42-30.48-8.35-59.93-9.92-88.56,5.54-3.21-16.06,10.32-23.43,12.89-35.04l-.33,.33Z"/><path class="c" d="M181.35,586.78c35.87-4.74,58.54-23.86,80.47-48.4,.83,26.53-7.8,45.09-29.36,55.95-16.33,8.23-32.37,6.73-51.11-7.55Z"/><path class="f" d="M831.81,600.07c-4.6-47.68,.83-92.08,40.85-125.19,3.05,13.11-.49,23.39-9.44,34.12-21.74,26.07-25.78,59.01-31.41,91.07Z"/><path class="c" d="M292.9,866.56c11.1-2.26,17.34,4.1,17.6,14.95,.25,10.56-7.66,15.43-17.42,15.45-10.38,.02-18.57-4.28-18.31-16.32,.23-10.8,6.41-15.59,18.13-14.08Z"/><path class="c" d="M294.38,686.02c-17.18-28.81-3.58-59.73-4.82-89.92l4.82-.4v90.32Z"/><path class="c" d="M288.61,838.86c4.79,3.31,11.63,3.31,12.39,10.75,.66,6.51-2.66,9.56-8.54,9.74-6.55,.2-8.45-4.14-8.24-9.97,.15-4.08-1.42-8.88,4.4-10.51Z"/><path class="f" d="M289.76,489.6c2.23,.02,4.46,.05,6.69,.07-1.14,5-2.27,9.99-3.41,14.99-4.84-4.16-2.91-9.84-3.38-14.98l.1-.08Z"/><path class="f" d="M398.9,279.19c10.02-78.84,36.51-146.44,91.59-200.99,5.61-5.56,12.76-12.31,21.55-8.14,8.52,4.04,8.76,13.5,8.28,21.65-2.68,46.03-.2,92,1.08,137.98,.17,6.11,.47,10.91-7.88,11.69-39.9,3.7-77.38,15.47-114.63,37.81Z"/><path class="e" d="M669.58,626.6c-.16,3.09,.89,7.38-.74,9.02-3.06,3.09-5.6-1.07-7.17-3.13-30.18-39.71-75.91-51.62-119.68-66.77-24.37-8.43-48.75-16.69-69.97-31.78-23.3-16.57-39.62-38.22-45.86-66.63-.76-3.48-2.09-8.15,2.2-9.71,1.63-.59,4.85,3.2,7.35,5,22.68,21.86,52.64,22.76,80.94,26.6,89.17,12.09,134.81,52.43,152.94,137.4Z"/><path class="f" d="M760.02,276.42c-28.49-16.11-55.92-24.66-85.08-27.24-7.98-.71-10.95-3.21-8.62-11.82,13.59-50.22,35.05-95.77,76.05-129.82,6.03-5,12.7-12.95,21.43-7.63,7.25,4.42,5.23,13.73,4.74,20.97-3.46,50.88-8.6,101.66-8.51,155.54Z"/><path class="f" d="M759.45,535.17c-8.88-3.34-6.81-9.99-7.5-15.13-7.44-55.06-30.92-101.87-70.94-140.52-13.57-13.1-27.62-26.02-36.71-42.91-11.63-21.62-1.5-38.1,23.13-36.77,28.95,1.56,48.68,19.01,64.38,41.35,13.58,19.32,20.8,41.51,25.5,64.51,8.78,42.87,8.18,85.8,2.13,129.49Z"/><path class="f" d="M481.96,615.33c-30.01-.49-59.06-5.11-85.47-20.5-29.57-17.23-43.56-45.76-35.78-72.13,2.8-9.47,6.81-18.96,17.12-20.61,10.9-1.74,11.46,9.52,15.14,16.33,20.76,38.41,55.2,59.47,94.37,74.55,1.77,.68,3.58,1.28,5.24,2.17,8.55,4.59,26.5,4.13,24.73,12.28-2.62,12.06-19.09,6.14-29.66,7.83-1.85,.29-3.78,.04-5.69,.07Z"/><path class="f" d="M669.58,626.6c-18.12-84.97-63.77-125.32-152.94-137.4-28.3-3.84-58.26-4.74-80.94-26.6,35.38,9.7,71.81,11.35,108.08,14.84,81.55,7.84,130.85,66.91,125.79,149.16Z"/><path class="e" d="M715.29,529.9c-16.63-32.75-42.44-48.14-68.66-63.66-12.11-7.17-29.29-14.74-20.04-34.62,5.56-11.95,23.86-11.86,42.49-1.15,30.3,17.42,52.59,61.53,46.21,99.43Z"/><path class="f" d="M481.47,637.8c-20.49,35.33-87.55,42.5-112.96,13.14-7.18-8.29-9.6-17.73-7.64-28.1,1.83-9.62,7.68-16.44,17.01-8.66,30.49,25.42,65.3,30.56,103.59,23.61Z"/><path class="e" d="M787.08,520.4c-4.9-30.04-3.17-58.91,11.81-85.4,5.63-9.96,14.89-20.14,27.35-13.35,12.69,6.92,8.35,20.18,3,30.04-12.71,23.39-34.88,41.12-42.16,68.7Z"/><path class="e" d="M316.88,461.96c-10.32-1.48-18.73-6.26-25.11-14.55-1.54-12.59,2.45-22.42,15.38-25.8,9.49-2.49,17.21,1.47,20.93,10.93,5.13,13.02,1.06,22.86-11.21,29.42Z"/><path class="e" d="M277.89,481.85c-19.97,21.65-36.93,46.56-65.01,59.35-10.94,4.98-21.86,9.83-34.29,9.54-7.09-.17-13.89-.56-18.29-7.41-5.16-8.01-1.05-14.96,3.34-20.89,13.03-17.61,31.29-28.04,51.85-35.23-7.47,11.31-20.52,17.45-26.94,29.33-3.53,6.53-13.35,15.13-4.81,20.63,6.09,3.92,17.46,.92,23.32-9.68,17.29-31.27,47.12-48.21,77.27-64.42,1.44-.77,3.66-.1,5.51-.1-3.98,6.3-7.96,12.59-11.94,18.89Z"/><path class="f" d="M277.89,481.85c3.98-6.3,7.96-12.59,11.94-18.89l-.24,.34c.63-.68,1.41-1,2.34-.96,9.96,9.94,2.37,18.48-2.17,27.27l-.09,.08c-5.87,.31-7.64-5.55-11.78-7.83Z"/><path class="e" d="M291.93,462.34c-.93-.04-1.71,.29-2.34,.96,.44-1.14,.51-3.19,2.34-.96Z"/></svg>