<?xml version="1.0" encoding="UTF-8"?><svg id="a" xmlns="http://www.w3.org/2000/svg" viewBox="0 0 1024 1024"><defs><style>.b{fill:#ebc108;}.c{fill:#d9180e;}.d{fill:#fbfafa;}.e{fill:#0e0c0c;}.f{fill:#e21c11;}</style></defs><path class="d" d="M302.4,473.52c4.82-100.64,31.6-193.62,95.45-273.65,12.45-15.6,26.14-30.04,43.47-40.31,14.45-8.56,29.87-16.67,46.52-6.98,16.65,9.69,17.18,27.27,17.19,43.96,.02,24.6-1.16,49.19-1.16,73.79,0,12.27,1.68,24.53,2.2,36.81,.25,5.96,2.35,8.87,8.59,7.72,.92-.17,1.92-.26,2.83-.11,16.67,2.9,24.15-3.89,28.97-20.62,10.6-36.85,30-69.27,58.39-95.66,13.69-12.72,29.2-22.49,47.69-26.74,24.55-5.64,37.49,3.37,39.55,28.45,1.94,23.73-3.79,47.08-4.7,70.71-.49,12.76-1.16,25.54-2.52,38.23-2.81,26.11,.88,47.41,22.23,68.05,31.37,30.32,36.98,73.16,40.16,115.22-30.01,24.82-34.08,58.12-30.63,93.86,.14,6.37-.5,12.87,3.12,22.03,6.62-19.42,11.15-36.82,28.23-48.84,.5,8.93,1.35,16.6,1.29,24.27-.3,33.16,13.11,63.83,17.11,96.21,2.82,22.81,3.01,45.43-5.01,67.29-4.14,11.3-12.96,17.62-25.22,16.95-10.64-.58-19.23-5.21-22.05-16.59-1.85-7.44-.51-13.93,6.3-18.73,7.39-5.21,14.14-11.25,18.81-19.07,5.63-9.42,3.5-16.64-7.66-19.2-19.89-4.56-39.64-2.48-58.53,4.5-10.22,3.78-10.9,12.19-2.87,20.19,6.11,6.09,13.88,9.81,21.52,13.53,11.03,5.37,12.1,13.55,6.96,23.48-5.77,11.15-15.63,17.47-26.93,21.84-31.97,12.34-63.89,10.58-95.76-.46-29.52-14.65-53.21-35.52-69.73-64.35-2.5-4.37-6.43-8.24-10.47-11.33-6.9-5.28-14.79-6.14-22.64-1.9-7.56,4.08-9.87,11.08-9.46,19.18,.75,14.75,8.81,25.83,19.11,35.21,18.18,16.56,39.67,26.87,63.85,31.5,34.17,10.56,68.63,18.15,104.75,11.91,19.56-3.38,37.23-10.37,51.75-24.36,2.28-2.2,4.12-7.59,8.82-2.85,8.18,8.26,19.02,9.26,32.35,10.39-18.69,22.21-40.45,35.25-66.01,41.94-57.13,14.96-113.02,5.97-167.59-11.91-75.75-24.81-132.87-72.71-170.02-143.73-1.29-2.47-2.99-4.71-4.5-7.07-.76-57.9-.64-115.83-5.59-173.59,9.2-4.91,12.25-12.29,8.4-22.06-2.79-7.09-8.58-10.06-15.69-8.2-9.69,2.54-12.69,9.91-11.53,19.34l-9.34,1.72Zm292.6,132.63c3.79-61.67-33.17-105.95-94.31-111.83-27.19-2.62-54.51-3.86-81.03-11.13-1.87-1.35-4.29-4.19-5.51-3.75-3.21,1.17-2.22,4.67-1.65,7.28,4.68,21.3,16.92,37.53,34.38,49.95,15.91,11.31,34.19,17.5,52.46,23.83,32.82,11.36,67.1,20.29,89.73,50.06,1.18,1.55,3.08,4.66,5.38,2.35,1.22-1.23,.43-4.44,.55-6.76Zm-202.94-260.47c27.92-16.75,56.03-25.57,85.94-28.35,6.26-.58,6.04-4.18,5.91-8.76-.96-34.48-2.82-68.94-.81-103.45,.36-6.11,.18-13.21-6.21-16.24-6.59-3.13-11.95,1.94-16.16,6.11-41.3,40.9-61.16,91.59-68.67,150.69Zm270.75-2.08c-.06-40.4,3.79-78.47,6.38-116.62,.37-5.43,1.88-12.41-3.56-15.72-6.54-3.99-11.55,1.97-16.06,5.72-30.73,25.52-46.82,59.68-57.02,97.33-1.75,6.46,.48,8.33,6.46,8.86,21.86,1.93,42.43,8.34,63.79,20.42Zm-.43,194c4.53-32.76,4.98-64.94-1.6-97.08-3.53-17.24-8.94-33.88-19.12-48.37-11.77-16.75-26.56-29.83-48.27-31-18.47-1-26.07,11.36-17.34,27.57,6.82,12.67,17.35,22.35,27.53,32.17,30,28.98,47.61,64.08,53.18,105.36,.52,3.86-1.03,8.84,5.63,11.35Zm-208.04,60.08c1.42,0,2.87,.19,4.26-.03,7.93-1.26,20.27,3.17,22.24-5.87,1.33-6.12-12.13-5.77-18.54-9.21-1.24-.67-2.61-1.12-3.93-1.63-29.37-11.31-55.19-27.09-70.76-55.89-2.76-5.11-3.18-13.55-11.35-12.25-7.73,1.24-10.74,8.35-12.84,15.45-5.83,19.77,4.65,41.16,26.82,54.08,19.8,11.54,41.58,15,64.09,15.35Zm174.93-64.03c4.78-28.42-11.93-61.48-34.65-74.55-13.97-8.03-27.69-8.1-31.86,.86-6.94,14.91,5.94,20.58,15.03,25.96,19.66,11.64,39.01,23.17,51.48,47.73Zm-175.31,80.9c-28.7,5.21-54.8,1.36-77.66-17.7-7-5.83-11.39-.72-12.76,6.49-1.47,7.77,.34,14.85,5.73,21.06,19.05,22.01,69.33,16.64,84.69-9.85Zm229.13-88.02c5.46-20.68,22.08-33.97,31.61-51.51,4.02-7.39,7.27-17.34-2.25-22.52-9.35-5.09-16.28,2.54-20.51,10.01-11.23,19.86-12.53,41.5-8.86,64.03Z"/><path class="c" d="M302.4,473.52c3.11-.57,6.22-1.14,9.34-1.71,4.78,6.22,11.09,9.8,18.82,10.91,4.96,57.76,4.83,115.69,5.59,173.59-.38,8.97-.69,17.95-1.16,26.92-.27,5.08,.5,10.95-7.71,10.47-8.09-.47-5.33-6.56-5.34-10.56-.09-45.89,.08-91.78,.16-137.67,.03-16.56,0-33.11,0-50.71-5.64,1.68-5.18,6.01-6.87,8.75-1.67-.02-3.34-.04-5.02-.05,3.41-6.59,9.09-12.99,1.63-20.44-1.37-1.67-1.42-.13-1.76,.72l.18-.25c-1.39,0-3.05-.5-4.13,.08-22.6,12.16-44.96,24.85-57.93,48.3-4.39,7.95-12.91,10.2-17.48,7.26-6.4-4.12,.96-10.57,3.61-15.47,4.81-8.91,14.6-13.51,20.2-21.99-15.42,5.39-29.11,13.21-38.88,26.41-3.29,4.44-6.37,9.65-2.5,15.66,3.3,5.13,8.4,5.43,13.72,5.55,9.32,.22,17.5-3.42,25.71-7.15,21.05-9.58,33.77-28.27,48.74-44.5,3.11,1.71,4.43,6.11,8.83,5.87,.35,3.86-1.1,8.12,2.53,11.23-6.9,38.11-12.41,76.39-14.15,115.15-.21,4.68,1.84,11.2-7.21,10.25-7.54-.78-7.47-5.58-7.06-11.14,2.57-35.38,7.23-70.44,15.56-104.96,.76-3.15,1.39-6.34,.2-10.74-6.09,7.18-11.94,14.57-18.31,21.49-17.29,18.8-35.95,35-63.89,34.3-13.21-.33-24.52-3.47-29.98-16.82-5.56-13.6-.35-25.11,8.84-34.88,14.67-15.62,34.17-23.29,53.69-30.5,16.84-6.22,34.3-10.38,52.02-13.35Z"/><path class="c" d="M293.49,863.08c.52-10.83,2.66-26.15,7.51-41.03,1.3-3.99,1.72-9.69,7.75-6.89,5.52,2.56,14.14-5.23,17.12,6.65,4.35,17.38,8.16,34.71,10.12,52.56,1.19,10.89-2.92,14.88-13.21,16.71-22.63,4.02-29.81-1.22-29.3-27.99Z"/><path class="f" d="M546.59,781.97c-24.18-4.63-45.67-14.93-63.85-31.5-10.3-9.38-18.35-20.46-19.11-35.21-.41-8.1,1.9-15.1,9.46-19.18,7.84-4.23,15.74-3.38,22.64,1.9,4.04,3.09,7.97,6.96,10.47,11.33,16.52,28.83,40.21,49.7,69.73,64.35-29.74-5.8-52.65-22.14-70.8-45.87-3.73-4.88-7.6-9.67-11.7-14.23-4.32-4.81-9.61-8.9-15.94-4.1-5.85,4.44-4.58,10.84-2.03,16.84,3.98,9.38,10.93,16.45,18.18,23.33,15.35,14.57,34.72,22.52,52.95,32.35Z"/><path class="b" d="M330.61,764.37c-8.49,1.96-13.94-.84-19.06-4.32-7.3-4.96-14.79-11.89-13.15-20.41,1.55-8.08,12.07-7.35,19.2-8.83,13.14-2.71,26.32-2.09,39.54,.24,6.91,1.22,8.69,4.64,6.79,10.89-2.45,8.07-7.61,14-14.41,18.76-4.03,2.82-8.14,2.88-11.83,.02-3.44-2.66-8.81-4.74-5.06-11.11,1.96-3.32,1.18-6.37-2.87-7.95-3.48-1.36-6.78-.74-9.19,1.77-3.07,3.19-.89,5.44,1.68,8.19,3.12,3.35,5.15,7.71,8.36,12.74Z"/><path class="b" d="M307.46,705.1c-3.73-1.59-5.96,1.94-9.01,2.64-3.07,.7-6.55,3.08-9.06-.43-2.08-2.91-1.7-6.46,.85-9.09,2.59-2.67,4.43-5.15,.89-8.2-2.88-2.48-6.28-2.16-9.24-.41-3.9,2.3-2.76,4.78-.32,8.01,2.26,2.99,2.88,7.7,.31,10.51-3.08,3.36-6.99,.09-10.28-1.23-2.58-1.03-5.07-2.57-7.19-4.38-5.85-4.98-12.53-11.32-10.48-18.76,1.93-7.01,11.35-4.84,17.51-5.77,11.31-1.72,22.64,.09,33.63,2.91,13.88,3.56,14.75,6.66,6.18,17.79-1.58,2.05-4.99,3.07-4.04,6.67l.24-.25Z"/><path class="b" d="M317.91,680.46c-21.12-10.12-41.81-11.13-62.91-4.62-1.85-16.13,10.93-29.45,28.67-30.39,20.52-1.09,34.79,12.8,34.25,35.01Z"/><path class="b" d="M307.21,705.35c4.81,1.56,7.75-2.57,11.58-3.94,19.7-7.02,38.51,2.92,45.4,25.81-22.85-6.26-44.93-7.44-66.4,4.15-2.41-12.04,7.74-17.57,9.66-26.27l-.24,.25Z"/><path class="c" d="M228.94,576.3c26.89-3.56,43.89-17.89,60.33-36.29,.62,19.89-5.85,33.8-22.01,41.95-12.24,6.17-24.27,5.05-38.32-5.66Z"/><path class="f" d="M716.63,586.26c-3.45-35.75,.62-69.04,30.63-93.86,2.29,9.83-.37,17.53-7.08,25.58-16.3,19.55-19.33,44.24-23.55,68.28Z"/><path class="c" d="M312.58,786.06c8.32-1.69,13,3.07,13.2,11.21,.19,7.92-5.75,11.57-13.06,11.58-7.78,.02-13.92-3.21-13.73-12.24,.17-8.1,4.8-11.69,13.59-10.56Z"/><path class="c" d="M313.69,650.7c-12.88-21.6-2.69-44.78-3.62-67.42l3.62-.3v67.71Z"/><path class="c" d="M309.36,765.3c3.59,2.48,8.72,2.48,9.29,8.06,.5,4.88-2,7.16-6.41,7.3-4.91,.15-6.34-3.11-6.18-7.48,.11-3.06-1.06-6.66,3.3-7.88Z"/><path class="f" d="M310.22,503.44c1.67,.02,3.34,.04,5.02,.05-.85,3.75-1.7,7.49-2.56,11.24-3.63-3.12-2.18-7.38-2.53-11.23l.07-.06Z"/><path class="f" d="M392.06,345.68c7.51-59.11,27.37-109.79,68.67-150.69,4.21-4.17,9.57-9.23,16.16-6.11,6.39,3.03,6.57,10.12,6.21,16.24-2.01,34.51-.15,68.98,.81,103.45,.13,4.58,.35,8.18-5.91,8.76-29.92,2.78-58.02,11.6-85.94,28.35Z"/><path class="e" d="M595,606.15c-.12,2.32,.67,5.53-.55,6.76-2.3,2.31-4.2-.8-5.38-2.35-22.63-29.77-56.92-38.7-89.73-50.06-18.27-6.32-36.55-12.51-52.46-23.83-17.47-12.42-29.71-28.66-34.38-49.95-.57-2.61-1.56-6.11,1.65-7.28,1.22-.44,3.64,2.4,5.51,3.75,17,16.39,39.46,17.07,60.68,19.94,66.85,9.06,101.08,39.31,114.66,103.02Z"/><path class="f" d="M662.8,343.6c-21.36-12.08-41.93-18.49-63.79-20.42-5.98-.53-8.21-2.41-6.46-8.86,10.19-37.66,26.28-71.81,57.02-97.33,4.52-3.75,9.52-9.71,16.06-5.72,5.43,3.32,3.92,10.29,3.56,15.72-2.59,38.15-6.45,76.22-6.38,116.62Z"/><path class="f" d="M662.37,537.61c-6.66-2.51-5.11-7.49-5.63-11.35-5.58-41.28-23.18-76.38-53.18-105.36-10.17-9.82-20.71-19.51-27.53-32.17-8.72-16.21-1.12-28.57,17.34-27.57,21.71,1.17,36.5,14.25,48.27,31,10.18,14.48,15.59,31.12,19.12,48.37,6.58,32.15,6.13,64.33,1.6,97.08Z"/><path class="f" d="M454.32,597.7c-22.5-.37-44.28-3.83-64.08-15.37-22.17-12.92-32.66-34.31-26.82-54.08,2.1-7.1,5.11-14.21,12.84-15.45,8.17-1.31,8.59,7.14,11.35,12.25,15.56,28.8,41.38,44.59,70.76,55.89,1.32,.51,2.69,.96,3.93,1.63,6.41,3.44,19.87,3.09,18.54,9.21-1.97,9.04-14.31,4.6-22.24,5.87-1.38,.22-2.84,.03-4.26,.05Z"/><path class="f" d="M595,606.15c-13.59-63.7-47.81-93.95-114.66-103.02-21.22-2.88-43.68-3.55-60.68-19.94,26.53,7.27,53.84,8.51,81.03,11.13,61.14,5.88,98.11,50.16,94.31,111.83Z"/><path class="e" d="M629.26,533.65c-12.47-24.55-31.82-36.09-51.48-47.73-9.08-5.38-21.96-11.05-15.03-25.96,4.17-8.96,17.89-8.89,31.86-.86,22.72,13.06,39.43,46.13,34.65,74.55Z"/><path class="f" d="M453.96,614.55c-15.37,26.49-65.64,31.86-84.69,9.85-5.38-6.22-7.2-13.29-5.73-21.06,1.37-7.21,5.76-12.33,12.76-6.49,22.86,19.06,48.96,22.92,77.66,17.7Z"/><path class="e" d="M683.09,526.53c-3.68-22.52-2.38-44.17,8.86-64.03,4.22-7.47,11.16-15.1,20.51-10.01,9.51,5.18,6.26,15.13,2.25,22.52-9.53,17.54-26.15,30.83-31.61,51.51Z"/><path class="e" d="M330.56,482.71c-7.74-1.11-14.04-4.69-18.82-10.91-1.16-9.44,1.84-16.81,11.53-19.35,7.11-1.86,12.9,1.1,15.69,8.2,3.85,9.76,.8,17.14-8.4,22.06Z"/><path class="e" d="M301.32,497.62c-14.97,16.23-27.69,34.91-48.74,44.5-8.2,3.74-16.39,7.37-25.71,7.15-5.32-.13-10.41-.42-13.72-5.55-3.87-6.01-.78-11.22,2.5-15.66,9.77-13.2,23.46-21.02,38.88-26.41-5.6,8.48-15.39,13.08-20.2,21.99-2.65,4.9-10.01,11.35-3.61,15.47,4.57,2.94,13.09,.69,17.48-7.26,12.97-23.45,35.33-36.14,57.93-48.3,1.08-.58,2.74-.08,4.13-.08-2.98,4.72-5.97,9.44-8.95,14.16Z"/><path class="f" d="M301.32,497.62c2.98-4.72,5.97-9.44,8.95-14.16l-.18,.25c.48-.51,1.06-.75,1.76-.72,7.47,7.45,1.78,13.86-1.63,20.44l-.07,.06c-4.4,.23-5.72-4.16-8.83-5.87Z"/><path class="e" d="M311.85,483c-.7-.03-1.28,.21-1.76,.72,.33-.85,.39-2.39,1.76-.72Z"/></svg>